<svg width="492" height="96" viewBox="0 0 492 96" fill="none" xmlns="http://www.w3.org/2000/svg">
<path d="M483.667 52.3335H382.333C379.756 52.3335 377.667 50.2402 377.667 47.6668C377.667 45.0935 379.756 43.0002 382.333 43.0002H483.667C486.244 43.0002 488.333 45.0935 488.333 47.6668C488.333 50.2402 486.244 52.3335 483.667 52.3335Z" fill="#4A2C76"/>
<path d="M442.333 95C441.139 95 439.944 94.5467 439.033 93.6267C437.211 91.8133 437.211 88.8533 439.033 87.04L478.4 47.6667L439.033 8.29332C437.211 6.47999 437.211 3.52 439.033 1.70667C440.856 -0.119998 443.811 -0.119998 445.633 1.70667L491.6 47.6667L445.633 93.6267C444.723 94.5467 443.528 95 442.333 95Z" fill="#4A2C76"/>
<path d="M109.667 53H8.33341C5.75608 53 3.66675 50.9067 3.66675 48.3333C3.66675 45.76 5.75608 43.6667 8.33341 43.6667H109.667C112.244 43.6667 114.333 45.76 114.333 48.3333C114.333 50.9067 112.244 53 109.667 53Z" fill="#4A2C76"/>
<path d="M49.6666 95.6667C48.4719 95.6667 47.2772 95.2134 46.3666 94.2934L0.399902 48.3334L46.3666 2.37342C48.1892 0.54675 51.1439 0.54675 52.9666 2.37342C54.7892 4.18675 54.7892 7.14674 52.9666 8.96007L13.5999 48.3334L52.9666 87.7068C54.7892 89.5201 54.7892 92.4801 52.9666 94.2934C52.0559 95.2134 50.8612 95.6667 49.6666 95.6667Z" fill="#4A2C76"/>
<path d="M197.667 47.6667C197.667 53.1867 193.189 57.6667 187.667 57.6667C182.144 57.6667 177.667 53.1867 177.667 47.6667C177.667 42.1467 182.144 37.6667 187.667 37.6667C193.189 37.6667 197.667 42.1467 197.667 47.6667Z" fill="#4A2C76"/>
<path d="M257 48.3335C257 53.8535 252.523 58.3335 247 58.3335C241.477 58.3335 237 53.8535 237 48.3335C237 42.8135 241.477 38.3335 247 38.3335C252.523 38.3335 257 42.8135 257 48.3335Z" fill="#FF9B1B"/>
<path d="M317 48.3335C317 53.8535 312.523 58.3335 307 58.3335C301.477 58.3335 297 53.8535 297 48.3335C297 42.8135 301.477 38.3335 307 38.3335C312.523 38.3335 317 42.8135 317 48.3335Z" fill="#4A2C76"/>
</svg>
